<?xml version="1.0" encoding="UTF-8" standalone="no"?>
<!-- Created with Inkscape (http://www.inkscape.org/) -->

<svg
   width="351.99994"
   height="96.000008"
   viewBox="0 0 93.133316 25.400002"
   version="1.1"
   id="svg1"
   xmlns="http://www.w3.org/2000/svg"
   xmlns:svg="http://www.w3.org/2000/svg">
  <defs
     id="defs1" />
  <g
     id="layer2"
     transform="translate(-268.81665,2.1166668)">
    <rect
       style="fill:none;fill-opacity:1;stroke-width:1.05833;stroke-linecap:round;stroke-linejoin:round;stroke-dasharray:none"
       id="rect13-5-7"
       width="93.133324"
       height="25.400002"
       x="268.81665"
       y="-2.1166668" />
    <path
       style="fill:none;fill-opacity:1;stroke:#ff99ff;stroke-width:9.525;stroke-linecap:round;stroke-linejoin:round;stroke-dasharray:none;stroke-opacity:1"
       d="m 289.45416,4.7624995 c 6.35,0 6.87919,12.1708325 14.2875,12.1708325 h 51.32916"
       id="path29-4-0" />
    <path
       id="rect1-7-5-6-1-2-5-6-3"
       style="fill:#332261;fill-opacity:1;stroke-width:1.05833;stroke-linecap:round;stroke-linejoin:round"
       d="m 337.60831,2.1166672 v 8.4666678 h 2.11667 V 7.7612842 l 1.05833,2.8220508 h 2.11667 l 1.05833,-2.8220508 v 2.8220508 h 2.11667 V 2.1166672 h -2.11667 l -2.11666,5.644617 -2.11667,-5.644617 z" />
    <path
       id="rect1-7-5-8-2-8-7-6"
       style="fill:#332261;fill-opacity:1;stroke-width:1.05833;stroke-linecap:round;stroke-linejoin:round"
       d="m 328.08332,12.700002 v 2.116667 h 2.64584 v 4.233333 h -2.64584 v 2.116667 h 2.64584 3.175 2.64583 v -2.116667 h -2.64583 v -4.233333 h 2.64583 v -2.116667 z" />
    <path
       id="rect1-7-5-6-0-3-2-4"
       style="fill:#332261;fill-opacity:1;stroke-width:1.05833;stroke-linecap:round;stroke-linejoin:round"
       d="m 309.03332,12.700005 v 8.466667 h 3.175 v -3.386873 l 2.11667,3.386873 h 3.175 v -8.466667 h -3.175 v 3.386874 l -2.11667,-3.386874 z" />
    <path
       id="rect1-7-5-6-0-3-4-1-5"
       style="fill:#332261;fill-opacity:1;stroke-width:1.05833;stroke-linecap:round;stroke-linejoin:round"
       d="m 337.60833,12.700005 v 8.466667 h 3.175 V 17.779799 L 342.9,21.166672 h 3.175 V 12.700005 H 342.9 v 3.386874 l -2.11667,-3.386874 z" />
    <path
       id="rect8-3-1-1-3"
       style="fill:#332261;fill-opacity:1;stroke-width:1.05833;stroke-linecap:round;stroke-linejoin:round"
       d="m 347.13332,12.700002 v 2.116667 0.529167 3.175 2.645833 h 2.11667 6.35 v -2.116667 h -6.35 v -0.529166 h 5.29167 v -3.175 h -5.29167 v -0.529167 h 6.35 v -2.116667 h -6.35 z" />
    <path
       id="rect16-5-6"
       style="fill:#332261;fill-opacity:1;stroke-width:1.05833;stroke-linecap:round;stroke-linejoin:round"
       d="m 270.93333,2.1166667 v 8.4666663 h 5.82084 A 2.6458576,2.6458333 0 0 0 279.4,7.9375 2.6458576,2.6458333 0 0 0 278.86618,6.3448323 2.6458328,2.645807 0 0 0 279.4,4.7625 2.6458328,2.645807 0 0 0 276.75417,2.1166667 Z M 273.05,4.2333333 h 3.70417 A 0.52917153,0.52916664 0 0 1 277.28333,4.7625 0.52917153,0.52916664 0 0 1 276.75417,5.2916666 H 273.05 Z m 0,3.175 h 3.70417 A 0.52917153,0.52916664 0 0 1 277.28333,7.9375 0.52917153,0.52916664 0 0 1 276.75417,8.4666666 H 273.05 Z" />
    <path
       id="rect16-8-7-4"
       style="fill:#332261;fill-opacity:1;stroke-width:1.05833;stroke-linecap:round;stroke-linejoin:round"
       d="m 349.77917,2.1166667 a 2.6458328,2.645807 0 0 0 -2.64584,2.6458333 2.6458328,2.645807 0 0 0 2.64584,2.6458333 h 3.175 a 0.52917153,0.52916664 0 0 1 0.52916,0.5291667 0.52917153,0.52916664 0 0 1 -0.52916,0.5291666 h -3.175 -0.52917 -2.11667 v 2.1166664 h 5.82084 A 2.6458576,2.6458333 0 0 0 355.6,7.9375 2.6458576,2.6458333 0 0 0 352.95417,5.2916666 h -3.175 A 0.52917153,0.52916664 0 0 1 349.25,4.7625 0.52917153,0.52916664 0 0 1 349.77917,4.2333333 h 3.175 0.52916 H 355.6 V 2.1166667 Z" />
    <ellipse
       style="fill:#ff99ff;fill-opacity:1;stroke-width:1.05833;stroke-linecap:round;stroke-linejoin:round"
       id="path26-1-7"
       cx="289.45413"
       cy="5.8208399"
       rx="7.9375048"
       ry="7.9375057" />
    <circle
       style="fill:#332261;fill-opacity:1;stroke-width:1.05833;stroke-linecap:round;stroke-linejoin:round"
       id="path20-6-9"
       cx="284.69165"
       cy="6.3500004"
       r="4.2333336" />
    <path
       id="path20-0-3-6"
       style="fill:#332261;fill-opacity:1;stroke-width:1.05833;stroke-linecap:round;stroke-linejoin:round"
       d="M 322.79167,2.1166667 A 4.2333336,4.2333336 0 0 0 318.55833,6.35 4.2333336,4.2333336 0 0 0 322.79167,10.583333 4.2333336,4.2333336 0 0 0 327.025,6.35 4.2333336,4.2333336 0 0 0 322.79167,2.1166667 Z m 0,2.6458333 a 1.5875008,1.5874999 0 0 1 1.5875,1.5875 1.5875008,1.5874999 0 0 1 -1.5875,1.5875 1.5875008,1.5874999 0 0 1 -1.5875,-1.5875 1.5875008,1.5874999 0 0 1 1.5875,-1.5875 z" />
    <ellipse
       style="fill:#ffffff;fill-opacity:1;stroke-width:1.05833;stroke-linecap:round;stroke-linejoin:round"
       id="path21-1-8"
       cx="284.69165"
       cy="6.3499994"
       rx="3.1750002"
       ry="3.1749997" />
    <circle
       style="fill:#332261;fill-opacity:1;stroke-width:1.05833;stroke-linecap:round;stroke-linejoin:round"
       id="path20-9-6-5"
       cx="294.21664"
       cy="6.3500004"
       r="4.2333336" />
    <ellipse
       style="fill:#ffffff;fill-opacity:1;stroke-width:1.05833;stroke-linecap:round;stroke-linejoin:round"
       id="path21-6-2-0"
       cx="294.21667"
       cy="6.3499994"
       rx="3.1750002"
       ry="3.1749997" />
    <path
       style="fill:#332261;fill-opacity:1;stroke-width:1.05833;stroke-linecap:round;stroke-linejoin:round"
       d="m 299.50831,2.1166669 h 3.175 v 8.4666671 l -3.17499,10e-7 z"
       id="path22-9-6" />
    <path
       style="fill:#332261;fill-opacity:1;stroke-width:1.05833;stroke-linecap:round;stroke-linejoin:round"
       d="m 301.62498,6.3500005 3.175,-4.2333339 3.175,3e-7 -3.175,4.2333339 3.175,4.2333332 h -3.175 z"
       id="path23-6-4" />
    <path
       style="fill:#332261;fill-opacity:1;stroke-width:1.05833;stroke-linecap:round;stroke-linejoin:round"
       d="m 309.03332,2.1166672 h 2.11666 l 0.52916,4.233332 0.52917,-4.233332 h 2.11667 l 0.52916,4.233333 0.52917,-4.233333 h 2.11667 l -1.05834,8.4666658 -2.64583,2e-6 -0.52917,-4.2333348 -0.52917,4.2333328 h -2.64583 z"
       id="path24-1-4" />
    <path
       id="path25-8-3"
       style="fill:#332261;fill-opacity:1;stroke-width:1.05833;stroke-linecap:round;stroke-linejoin:round"
       d="m 289.45415,4.7625004 a 1.5874999,1.5874999 0 0 0 -1.5875,1.5875 h 1.05833 a 0.52916664,0.52916664 0 0 1 0.52917,-0.5291667 0.52916664,0.52916664 0 0 1 0.52916,0.5291667 h 1.05834 a 1.5874999,1.5874999 0 0 0 -1.5875,-1.5875 z" />
    <path
       id="path20-0-1-5-5"
       style="fill:#332261;fill-opacity:1;stroke-width:1.05833;stroke-linecap:round;stroke-linejoin:round"
       d="m 303.74167,12.7 a 4.2333336,4.2333336 0 0 0 -4.23334,4.233333 4.2333336,4.2333336 0 0 0 4.23334,4.233334 A 4.2333336,4.2333336 0 0 0 307.975,16.933333 4.2333336,4.2333336 0 0 0 303.74167,12.7 Z m 0,2.645833 a 1.5875008,1.5874999 0 0 1 1.5875,1.5875 1.5875008,1.5874999 0 0 1 -1.5875,1.5875 1.5875008,1.5874999 0 0 1 -1.5875,-1.5875 1.5875008,1.5874999 0 0 1 1.5875,-1.5875 z" />
    <path
       id="rect1-7-5-1-7-0-6"
       style="fill:#332261;fill-opacity:1;stroke-width:1.05833;stroke-linecap:round;stroke-linejoin:round"
       d="m 328.08332,2.1166672 v 8.4666678 h 3.175 V 8.4666672 h 1.05834 l 1.05833,2.1166678 h 3.175 l -1.35082,-2.7011278 a 3.1750004,3.1750004 0 0 0 1.35082,-2.59054 3.1750004,3.1750004 0 0 0 -3.175,-3.175 h -2.11667 -2.11666 z m 3.175,2.116667 h 2.11667 a 1.0583329,1.0583335 0 0 1 1.05833,1.058333 1.0583329,1.0583335 0 0 1 -1.05833,1.058334 h -2.11667 z" />
    <path
       style="fill:#332261;fill-opacity:1;stroke-width:1.05833;stroke-linecap:round;stroke-linejoin:round"
       d="m 318.55833,12.700005 h 3.17499 v 5.291664 h 5.29168 v 3.175004 h -8.46667 z"
       id="path27-7-7" />
    <ellipse
       style="fill:#332261;fill-opacity:1;stroke-width:1.05833;stroke-linecap:round;stroke-linejoin:round"
       id="path7-8-5"
       cx="284.28513"
       cy="6.8791666"
       rx="2.1166666"
       ry="2.1166663" />
    <ellipse
       style="fill:#332261;fill-opacity:1;stroke-width:1.05833;stroke-linecap:round;stroke-linejoin:round"
       id="path7-7-3-1"
       cx="293.68747"
       cy="6.8791666"
       rx="2.1166666"
       ry="2.1166663" />
    <path
       style="fill:#f2f2f2;fill-opacity:1;stroke-width:1.05833;stroke-linecap:round;stroke-linejoin:round"
       d="m 284.16252,12.964586 -0.26459,-2.116667 c 0,0 4.23334,1.058333 4.23334,2.645833 0,1.003089 0,1.737546 0,1.737546 z"
       id="path28-8-7" />
    <path
       style="fill:#ffffff;fill-opacity:1;stroke-width:1.05833;stroke-linecap:round;stroke-linejoin:round"
       d="m 282.8396,13.229169 -0.52917,-1.5875 c 0,0 5.29167,0.529167 5.82084,1.852083 0.55586,1.38966 -5.29167,-0.264583 -5.29167,-0.264583 z"
       id="path14-4-4" />
    <path
       style="fill:#ffffff;fill-opacity:1;stroke-width:1.05833;stroke-linecap:round;stroke-linejoin:round"
       d="m 288.13127,13.493752 c 0,0 0,-0.264583 0.52916,-0.529166 0.52917,-0.264584 5.29167,-1.058334 5.29167,-1.058334 l 0.2646,1.058334 z"
       id="path15-4-5" />
    <path
       style="fill:#14b5a1;fill-opacity:1;stroke-width:1.05833;stroke-linecap:round;stroke-linejoin:round"
       d="m 281.78127,12.435419 6.34999,1.058331 6.35001,-1.058333 2.11666,8.466668 -0.26457,0.264583 -6.35001,1.058334 -6.35,-1.058334 -2.11666,-8.466666 z"
       id="path13-0-0" />
  </g>
</svg>
